<svg width="24" height="24" fill="none" xmlns="http://www.w3.org/2000/svg"><path d="M20 7H4a2 2 0 0 0-2 2v10a2 2 0 0 0 2 2h16a2 2 0 0 0 2-2V9a2 2 0 0 0-2-2z" stroke="#FFA438" stroke-width="1.5" stroke-linecap="round" stroke-linejoin="round"/><path d="M16 7.287V5a2 2 0 0 0-2-2h-4a2 2 0 0 0-2 2v2.287M20.641 7.287v2.658c0 .617-.455 1.208-1.265 1.644-.81.436-1.91.681-3.056.681H7.68c-1.146 0-2.245-.245-3.055-.68-.81-.437-1.266-1.028-1.266-1.645V7.287" stroke="#FFA438" stroke-width="1.5" stroke-linejoin="round"/><path d="M10.438 14h3.124" stroke="#FFA438" stroke-width="1.5" stroke-linecap="round"/></svg>