<svg width="16" height="16" fill="none" xmlns="http://www.w3.org/2000/svg"><path d="M13.333 4.667H2.667c-.737 0-1.334.597-1.334 1.333v6.667c0 .736.597 1.333 1.334 1.333h10.666c.737 0 1.334-.597 1.334-1.333V6c0-.736-.597-1.333-1.334-1.333z" stroke="#FFA438" stroke-linecap="round" stroke-linejoin="round"/><path d="M10.667 4.858V3.333A1.333 1.333 0 0 0 9.333 2H6.667a1.333 1.333 0 0 0-1.334 1.333v1.525" stroke="#FFA438" stroke-linejoin="round"/><path d="M13.76 4.858V6.63c0 .411-.303.805-.843 1.096-.54.29-1.273.454-2.037.454H5.12c-.764 0-1.497-.163-2.037-.454-.54-.29-.844-.685-.844-1.096V4.858" stroke="#FFA438" stroke-linejoin="round"/><path d="M6.958 9.333h2.084" stroke="#FFA438" stroke-linecap="round"/></svg>