<svg width="24" height="24" fill="none" xmlns="http://www.w3.org/2000/svg"><path fill-rule="evenodd" clip-rule="evenodd" d="M8.948 4.443a.625.625 0 0 0-.808-.13l-1.472.912c-1.156.715-1.695 1.953-1.326 3.09.518 1.597 1.476 3.812 3.224 6.168 1.75 2.36 3.79 3.943 5.357 4.923 1.11.694 2.572.392 3.543-.72l1.156-1.324c.21-.24.206-.6-.011-.835l-1.884-2.039a.625.625 0 0 0-.743-.132l-1.842.94a.818.818 0 0 1-.722.01c-1.054-.499-1.97-1.473-2.66-2.383a16.028 16.028 0 0 1-1.533-2.471.817.817 0 0 1 .075-.845l1.569-2.131a.625.625 0 0 0-.025-.773l-1.898-2.26zM7.28 2.923a2.26 2.26 0 0 1 2.92.469l1.898 2.26a2.26 2.26 0 0 1 .09 2.792l-1.267 1.722a14.66 14.66 0 0 0 1.142 1.769c.54.712 1.135 1.333 1.722 1.707l1.456-.742c.902-.46 2-.265 2.687.479l1.883 2.038a2.26 2.26 0 0 1 .043 3.02l-1.156 1.324c-1.386 1.586-3.713 2.237-5.641 1.031-1.693-1.058-3.902-2.771-5.804-5.335-1.87-2.521-2.903-4.901-3.466-6.637-.65-2.003.369-3.963 2.02-4.985l1.473-.912z" fill="#FFA438"/></svg>