<svg width="30" height="30" fill="none" xmlns="http://www.w3.org/2000/svg"><path d="M14.791 6.349c.907-.015 1.81-.006 2.71-.015.054 1.085.436 2.19 1.212 2.956.775.786 1.871 1.145 2.938 1.267v2.852c-1-.033-2.004-.246-2.91-.686a8.38 8.38 0 0 1-1.124-.658c-.004 2.07.009 4.136-.013 6.198a5.471 5.471 0 0 1-.937 2.792c-.906 1.358-2.48 2.244-4.095 2.271-.992.058-1.982-.218-2.826-.727-1.4-.844-2.385-2.388-2.528-4.046-.018-.35-.021-.702-.009-1.054A5.348 5.348 0 0 1 9 13.985c1.147-1.021 2.755-1.508 4.26-1.22.014 1.05-.027 2.097-.027 3.146-.688-.227-1.491-.163-2.092.263-.44.297-.772.732-.945 1.24-.144.359-.103.758-.094 1.14.164 1.162 1.258 2.139 2.425 2.033.774-.008 1.516-.467 1.92-1.14.13-.235.276-.476.284-.752.068-1.267.04-2.529.049-3.796.006-2.856-.008-5.703.013-8.55z" fill="#2F93E1" opacity=".6"/></svg>