<svg width="24" height="24" viewBox="0 0 24 24" fill="none" xmlns="http://www.w3.org/2000/svg">
<path d="M17.4168 3.89317C15.8134 2.82183 13.9284 2.25 12 2.25C9.41414 2.25 6.93419 3.27723 5.10571 5.10571C3.27723 6.93419 2.25 9.41414 2.25 12C2.25 13.9284 2.82183 15.8134 3.89317 17.4168C4.96451 19.0202 6.48726 20.2699 8.26884 21.0078C10.0504 21.7458 12.0108 21.9389 13.9021 21.5627C15.7934 21.1864 17.5307 20.2579 18.8943 18.8943C20.2579 17.5307 21.1864 15.7934 21.5627 13.9021C21.9389 12.0108 21.7458 10.0504 21.0078 8.26884C20.2699 6.48726 19.0202 4.96451 17.4168 3.89317Z" stroke="#FFA438" stroke-width="1.5"/>
<path d="M12.1647 11.6524V11.3637V7.56195C12.1647 7.47974 12.132 7.40089 12.0739 7.34275C12.0157 7.28461 11.9369 7.25195 11.8547 7.25195C11.7725 7.25195 11.6936 7.28461 11.6355 7.34275C11.5773 7.40089 11.5447 7.47974 11.5447 7.56195V11.8815C11.5449 11.9549 11.5712 12.0258 11.6191 12.0815C11.667 12.1372 11.7332 12.174 11.8058 12.1852L11.946 12.2067L12.0539 12.2987C12.0657 12.3087 12.0782 12.3178 12.0913 12.3259L15.8276 14.483C15.8988 14.5241 15.9834 14.5353 16.0628 14.514C16.1422 14.4927 16.21 14.4408 16.2511 14.3696L12.1647 11.6524ZM12.1647 11.6524L12.4147 11.7967M12.1647 11.6524L12.4147 11.7967M12.4147 11.7967L16.1376 13.9461C16.1376 13.9461 16.1376 13.9461 16.1376 13.9461C16.2088 13.9872 16.2608 14.0549 16.282 14.1343C16.3033 14.2138 16.2922 14.2984 16.2511 14.3696L12.4147 11.7967Z" stroke="#FFA438"/>
</svg>
