<svg width="24" height="24" viewBox="0 0 24 24" fill="none" xmlns="http://www.w3.org/2000/svg">
<path fill-rule="evenodd" clip-rule="evenodd" d="M20.5737 3.42632C20.8579 3.71053 21 4.06579 21 4.49211C21 4.91842 20.8579 5.27368 20.5737 5.55789L14.1316 12L20.5737 18.4421C20.8579 18.7263 21 19.0816 21 19.5079C21 19.9342 20.8579 20.2895 20.5737 20.5737C20.2895 20.8579 19.9342 21 19.5079 21C19.0816 21 18.7263 20.8579 18.4421 20.5737L12 14.1316L5.55789 20.5737C5.27368 20.8579 4.91842 21 4.49211 21C4.06579 21 3.71053 20.8579 3.42632 20.5737C3.1421 20.2895 3 19.9342 3 19.5079C3 19.0816 3.1421 18.7263 3.42632 18.4421L9.86842 12L3.42632 5.55789C3.1421 5.27368 3 4.91842 3 4.49211C3 4.06579 3.1421 3.71053 3.42632 3.42632C3.71053 3.1421 4.06579 3 4.49211 3C4.91842 3 5.27368 3.1421 5.55789 3.42632L12 9.86842L18.4421 3.42632C18.7263 3.1421 19.0816 3 19.5079 3C19.9342 3 20.2895 3.1421 20.5737 3.42632Z" fill="#606483"/>
</svg>
