<svg width="20" height="20" viewBox="0 0 20 20" fill="none" xmlns="http://www.w3.org/2000/svg">
<path fill-rule="evenodd" clip-rule="evenodd" d="M17.1447 2.85526C17.3816 3.09211 17.5 3.38816 17.5 3.74342C17.5 4.09869 17.3816 4.39474 17.1447 4.63158L11.7763 10L17.1447 15.3684C17.3816 15.6053 17.5 15.9013 17.5 16.2566C17.5 16.6118 17.3816 16.9079 17.1447 17.1447C16.9079 17.3816 16.6118 17.5 16.2566 17.5C15.9013 17.5 15.6053 17.3816 15.3684 17.1447L10 11.7763L4.63158 17.1447C4.39474 17.3816 4.09869 17.5 3.74342 17.5C3.38816 17.5 3.09211 17.3816 2.85526 17.1447C2.61842 16.9079 2.5 16.6118 2.5 16.2566C2.5 15.9013 2.61842 15.6053 2.85526 15.3684L8.22368 10L2.85526 4.63158C2.61842 4.39474 2.5 4.09869 2.5 3.74342C2.5 3.38816 2.61842 3.09211 2.85526 2.85526C3.09211 2.61842 3.38816 2.5 3.74342 2.5C4.09869 2.5 4.39474 2.61842 4.63158 2.85526L10 8.22368L15.3684 2.85526C15.6053 2.61842 15.9013 2.5 16.2566 2.5C16.6118 2.5 16.9079 2.61842 17.1447 2.85526Z" fill="white"/>
</svg>
