<svg width="16" height="16" fill="none" xmlns="http://www.w3.org/2000/svg"><path d="M6.444 15h3.112m3.888 0V2.556A1.555 1.555 0 0 0 11.89 1H4.11a1.556 1.556 0 0 0-1.555 1.556V15h10.888zm0 0H15h-1.556zm0 0H9.556h3.888zM2.556 15H1h1.556zm0 0h3.888-3.888zm3.11-10.889h.778-.777zm0 3.111h.778-.777zm3.89-3.11h.777-.777zm0 3.11h.777-.777zM6.444 15v-3.889a.778.778 0 0 1 .778-.778h1.556a.778.778 0 0 1 .778.778V15H6.444z" stroke="#C4CDDF" stroke-width="1.5" stroke-linecap="round" stroke-linejoin="round"/></svg>