<svg width="16" height="16" fill="none" xmlns="http://www.w3.org/2000/svg"><path d="M12.712 8.006a1 1 0 0 1 1.163-.473l.359.108.096.032a1.75 1.75 0 0 1 1.13 1.395c.15 1.034-.183 2.243-.983 3.63-.799 1.383-1.678 2.274-2.645 2.663a1.75 1.75 0 0 1-1.858-.352l-.27-.257-.062-.063a1 1 0 0 1-.062-1.248l.678-.94.046-.057a.75.75 0 0 1 .781-.222l1.026.314.026.005h.022c.122-.013.371-.26.677-.79.34-.59.41-.934.317-1.023l-.522-.486-.066-.067a1.248 1.248 0 0 1-.221-1.359l.33-.735.038-.075zM8.09 12.505H4.329a.26.26 0 0 1-.26-.26v-.37a2.5 2.5 0 0 1 2.5-2.5h2.02c.55 0 1.117.264 1.42.59.15.16.198.294.202.383.003.067-.017.175-.181.316a4.452 4.452 0 0 1-.294.224l-.043.031c-.105.076-.224.162-.341.254-.267.21-.567.486-.768.868a1.27 1.27 0 0 1-.27.36c-.094.081-.167.104-.224.104z" stroke="#FFA438"/><path fill-rule="evenodd" clip-rule="evenodd" d="M1.09 3.86a2 2 0 0 1 2-2h9.656a2 2 0 0 1 2 2v2.113h-.8V3.86a1.2 1.2 0 0 0-1.2-1.2H3.09a1.2 1.2 0 0 0-1.2 1.2v7.111a1.2 1.2 0 0 0 1.2 1.2h2.83v.8H3.09a2 2 0 0 1-2-2V3.861z" fill="#FFA438"/><path d="M8.67 5.967a1.533 1.533 0 1 1-3.065 0 1.533 1.533 0 0 1 3.065 0z" stroke="#FFA438"/></svg>