<svg width="16" height="17" fill="none" xmlns="http://www.w3.org/2000/svg"><path d="M3.704 2.25s.87-.593 1.48-.528c.821.087 1.329.566 1.932 1.452.514.755.834 1.901.698 2.413-.254.957-1.965 1.602-1.965 1.602-.148.185.5 1.417 1.267 2.403.691.887 1.537 1.621 1.763 1.615l.039-.006.047-.015s.998-1 2.13-1.4c.547-.194 1.246.45 1.883 1.116 1.094 1.14 1.337 1.36 1.094 2.337-.14.557-.585 1.257-.585 1.257a3.215 3.215 0 0 1-3.291 1.112c-1.86-.465-3.684-1.863-5.487-4.178C2.9 9.11 1.99 6.994 1.999 5.075a3.215 3.215 0 0 1 1.705-2.824z" stroke="#FFA438" stroke-linejoin="round"/></svg>