<svg width="20" height="22" fill="none" xmlns="http://www.w3.org/2000/svg"><path fill-rule="evenodd" clip-rule="evenodd" d="M.48 2.13a1.5 1.5 0 0 1 1.5-1.5h13.908a1.5 1.5 0 0 1 1.5 1.5v9.72a.75.75 0 1 1-1.5 0V2.13H1.979v17.633h8.128a.75.75 0 1 1 0 1.5H1.979a1.5 1.5 0 0 1-1.5-1.5V2.13z" fill="#FFA438"/><path fill-rule="evenodd" clip-rule="evenodd" d="M4.21 6.02a.75.75 0 0 1 .75-.75h7.947a.75.75 0 0 1 0 1.5H4.96a.75.75 0 0 1-.75-.75zM4.21 9.02a.75.75 0 0 1 .75-.75h7.947a.75.75 0 0 1 0 1.5H4.96a.75.75 0 0 1-.75-.75zM4.21 12.02a.75.75 0 0 1 .75-.75h3.697a.75.75 0 0 1 0 1.5H4.96a.75.75 0 0 1-.75-.75zM19.204 13.59a.75.75 0 0 1 .178 1.045l-4.062 5.73a1.5 1.5 0 0 1-2.23.244l-2.76-2.496A.75.75 0 1 1 11.334 17l2.761 2.497 4.063-5.73a.75.75 0 0 1 1.045-.177z" fill="#FFA438"/></svg>