<svg width="23" height="22" fill="none" xmlns="http://www.w3.org/2000/svg"><path d="m19.669 9.778.53.16.13.043a2.125 2.125 0 0 1 1.367 1.692c.2 1.393-.24 3.09-1.414 5.123-1.17 2.028-2.417 3.257-3.721 3.782a2.125 2.125 0 0 1-2.256-.428l-.398-.377-.076-.079a1 1 0 0 1-.056-1.24l1.01-1.4.053-.066a.625.625 0 0 1 .644-.176l1.538.47.027.008.027.005.04.008.045.008h.107l.027-.003a.87.87 0 0 0 .413-.176c.105-.077.209-.177.31-.29.204-.229.431-.55.672-.967.265-.46.44-.85.529-1.162.044-.154.073-.312.069-.462a.732.732 0 0 0-.212-.522l-.004-.004-.776-.723-.085-.086a1.372 1.372 0 0 1-.237-1.487l.492-1.094.046-.093a1 1 0 0 1 1.159-.464z" stroke="#FFA438"/><path d="M11.274 16.907h-5.92a.4.4 0 0 1-.4-.4v-2.194a2.4 2.4 0 0 1 2.4-2.4h5.152c.296 0 .675.112 1.075.326.395.212.765.498 1.036.79.276.296.381.523.4.631a.513.513 0 0 1-.1.037 1.855 1.855 0 0 0-.774.413 7.138 7.138 0 0 1-.518.393c-.174.124-.369.265-.56.418-.414.333-.861.766-1.134 1.367-.197.436-.467.62-.657.62z" stroke="#FFA438" stroke-width="1.2"/><path fill-rule="evenodd" clip-rule="evenodd" d="M.635 3.791a3 3 0 0 1 3-3h14.484a3 3 0 0 1 3 3V6.96h-1.2V3.791a1.8 1.8 0 0 0-1.8-1.8H3.635a1.8 1.8 0 0 0-1.8 1.8v10.667a1.8 1.8 0 0 0 1.8 1.8h4.244v1.2H3.635a3 3 0 0 1-3-3V3.79z" fill="#FFA438"/></svg>