<svg width="14" height="14" fill="none" xmlns="http://www.w3.org/2000/svg"><path fill-rule="evenodd" clip-rule="evenodd" d="M.653 1.087a1 1 0 0 1 1-1h9.272a1 1 0 0 1 1 1v6.48a.5.5 0 0 1-1 0v-6.48H1.653v11.755h5.418a.5.5 0 1 1 0 1H1.653a1 1 0 0 1-1-1V1.087z" fill="#FFA438"/><path fill-rule="evenodd" clip-rule="evenodd" d="M3.14 3.68a.5.5 0 0 1 .5-.5h5.298a.5.5 0 1 1 0 1H3.64a.5.5 0 0 1-.5-.5zM3.14 5.68a.5.5 0 0 1 .5-.5h5.298a.5.5 0 1 1 0 1H3.64a.5.5 0 0 1-.5-.5zM3.14 7.68a.5.5 0 0 1 .5-.5h2.465a.5.5 0 0 1 0 1H3.64a.5.5 0 0 1-.5-.5zM13.136 8.726a.5.5 0 0 1 .119.697l-2.709 3.82a1 1 0 0 1-1.486.163l-1.84-1.664A.5.5 0 1 1 7.89 11l1.84 1.664 2.71-3.819a.5.5 0 0 1 .696-.119z" fill="#FFA438"/></svg>