<svg width="30" height="30" viewBox="0 0 30 30" fill="none" xmlns="http://www.w3.org/2000/svg">
<path d="M15.4423 11.5927C13.8036 11.5927 12.4662 12.93 12.4662 14.5688C12.4662 16.2076 13.8036 17.5449 15.4423 17.5449C17.0811 17.5449 18.4184 16.2076 18.4184 14.5688C18.4184 12.93 17.0811 11.5927 15.4423 11.5927ZM24.3684 14.5688C24.3684 13.3364 24.3795 12.1151 24.3103 10.8849C24.2411 9.45606 23.9152 8.18792 22.8703 7.14305C21.8232 6.09594 20.5573 5.77221 19.1284 5.703C17.896 5.63379 16.6747 5.64495 15.4445 5.64495C14.2121 5.64495 12.9909 5.63379 11.7607 5.703C10.3318 5.77221 9.06366 6.09818 8.01879 7.14305C6.97168 8.19016 6.64795 9.45606 6.57874 10.8849C6.50953 12.1174 6.52069 13.3386 6.52069 14.5688C6.52069 15.799 6.50953 17.0225 6.57874 18.2527C6.64795 19.6815 6.97392 20.9497 8.01879 21.9946C9.0659 23.0417 10.3318 23.3654 11.7607 23.4346C12.9931 23.5038 14.2144 23.4927 15.4445 23.4927C16.677 23.4927 17.8982 23.5038 19.1284 23.4346C20.5573 23.3654 21.8254 23.0394 22.8703 21.9946C23.9174 20.9474 24.2411 19.6815 24.3103 18.2527C24.3818 17.0225 24.3684 15.8012 24.3684 14.5688ZM15.4423 19.1479C12.9083 19.1479 10.8632 17.1028 10.8632 14.5688C10.8632 12.0348 12.9083 9.98966 15.4423 9.98966C17.9763 9.98966 20.0214 12.0348 20.0214 14.5688C20.0214 17.1028 17.9763 19.1479 15.4423 19.1479ZM20.209 10.8716C19.6173 10.8716 19.1396 10.3938 19.1396 9.80212C19.1396 9.21047 19.6173 8.73269 20.209 8.73269C20.8006 8.73269 21.2784 9.21047 21.2784 9.80212C21.2786 9.94261 21.2511 10.0818 21.1974 10.2116C21.1437 10.3414 21.0649 10.4594 20.9656 10.5587C20.8662 10.6581 20.7483 10.7368 20.6184 10.7905C20.4886 10.8442 20.3495 10.8717 20.209 10.8716Z" fill="#2F93E1"/>
</svg>
