<svg width="36" height="36" viewBox="0 0 36 36" fill="none" xmlns="http://www.w3.org/2000/svg">
<rect width="36" height="36" rx="18" fill="#EC5F6B" fill-opacity="0.1"/>
<path d="M17.4357 13.5113L18 14.1558L18.5643 13.5113C19.4372 12.5143 20.7849 11.8777 22.1829 11.8777C24.6514 11.8777 26.5453 13.7493 26.5453 16.1002C26.5453 17.5557 25.8792 18.9386 24.5427 20.5279C23.1983 22.1266 21.2607 23.8373 18.8517 25.962L18.8506 25.963L17.9981 26.7178L17.1488 25.9716C17.1486 25.9713 17.1483 25.9711 17.148 25.9709C14.7393 23.8418 12.8018 22.1291 11.4574 20.5292C10.1207 18.9387 9.45459 17.5557 9.45459 16.1002C9.45459 13.7493 11.3485 11.8777 13.817 11.8777C15.215 11.8777 16.5628 12.5143 17.4357 13.5113Z" stroke="#EF1C31" stroke-width="1.5"/>
</svg>
