<svg width="243" height="25" viewBox="0 0 243 25" fill="none" xmlns="http://www.w3.org/2000/svg">
<path d="M143.944 15.3029V9.69713C143.944 4.72901 143.944 3.82572 143.877 2.81615C143.81 1.72689 143.557 1.2221 142.503 0.996281C142.25 0.929862 141.703 0.903294 141.41 0.903294C141.277 0.903294 141.157 0.836876 141.157 0.717322C141.157 0.53135 141.317 0.464931 141.663 0.464931C143.104 0.464931 144.997 0.557917 145.184 0.557917C145.477 0.557917 147.331 0.464931 148.291 0.464931C148.638 0.464931 148.798 0.53135 148.798 0.717322C148.798 0.850159 148.664 0.903294 148.544 0.903294C148.318 0.903294 148.131 0.929862 147.744 0.996281C146.878 1.15569 146.624 1.70032 146.557 2.81615C146.491 3.839 146.491 4.72901 146.491 9.69713V11.61C147.158 10.9989 152.959 5.14081 154.105 3.89214C154.999 2.96227 155.839 2.13868 155.839 1.59405C155.839 1.20882 155.679 1.02285 155.426 0.929862C155.266 0.863443 155.132 0.797024 155.132 0.677471C155.132 0.518066 155.292 0.451647 155.519 0.451647C156.159 0.451647 157.146 0.544633 157.919 0.544633C158.079 0.544633 160.186 0.451647 160.986 0.451647C161.333 0.451647 161.467 0.518066 161.467 0.677471C161.467 0.836876 161.4 0.903294 161.147 0.903294C160.666 0.903294 160 1.0627 159.36 1.35494C158.053 1.92614 157.346 2.72317 155.906 4.09139C155.106 4.86185 149.531 10.2816 148.865 11.0786C149.691 12.0085 156.359 18.8629 157.666 20.0717C160.36 22.5558 160.893 23.0739 162.44 23.7115C163.267 24.0569 164.2 24.1233 164.427 24.1233C164.654 24.1233 164.84 24.1897 164.84 24.3092C164.84 24.4686 164.68 24.5616 164.134 24.5616H162.507C161.613 24.5616 161 24.5616 160.293 24.4952C158.599 24.3358 157.799 23.6318 156.426 22.5558C154.986 21.3735 148.198 14.0808 146.664 12.1945L146.504 15.3162C146.504 18.3714 146.504 20.8953 146.664 22.237C146.757 23.1668 146.958 23.8576 147.918 23.9904C148.371 24.0569 148.878 24.1233 149.171 24.1233C149.358 24.1233 149.425 24.2163 149.425 24.3092C149.425 24.4686 149.265 24.5616 148.918 24.5616H142.17C141.823 24.5616 141.663 24.4952 141.663 24.3092C141.663 24.2163 141.73 24.1233 141.917 24.1233C142.21 24.1233 142.583 24.0569 142.877 23.9904C143.517 23.8576 143.677 23.1668 143.81 22.237C143.944 20.882 143.944 18.3581 143.944 15.3029ZM43.7272 14.3464V9.69713C43.7272 4.72901 43.7272 3.82572 43.6605 2.81615C43.5938 1.72689 43.3405 1.2221 42.287 0.996281C42.0336 0.929862 41.4868 0.903294 41.1934 0.903294C41.0601 0.903294 40.9401 0.836876 40.9401 0.717322C40.9401 0.53135 41.1001 0.464931 41.4468 0.464931C42.8871 0.464931 44.834 0.557917 45.1274 0.557917C45.4208 0.557917 47.3411 0.464931 48.3013 0.464931C48.648 0.464931 48.808 0.53135 48.808 0.717322C48.808 0.850159 48.6747 0.903294 48.5547 0.903294C48.328 0.903294 48.1413 0.929862 47.7545 0.996281C46.8877 1.12912 46.6343 1.70032 46.5677 2.81615C46.501 3.839 46.501 4.72901 46.501 9.69713V14.1605C46.501 18.7566 47.5278 20.7226 48.9014 22.0377C50.475 23.4989 51.9152 23.7912 53.7288 23.7912C55.6758 23.7912 57.5961 22.8613 58.7563 21.4931C60.2232 19.6732 60.61 16.9633 60.61 13.6823V9.69713C60.61 4.72901 60.61 3.82572 60.5433 2.81615C60.4766 1.72689 60.2232 1.2221 59.1697 0.996281C58.9164 0.929862 58.3696 0.903294 58.0762 0.903294C57.9429 0.903294 57.8229 0.836876 57.8229 0.717322C57.8229 0.53135 57.9829 0.464931 58.3296 0.464931C59.7698 0.464931 61.5301 0.557917 61.7168 0.557917C61.9435 0.557917 63.4504 0.464931 64.4106 0.464931C64.7573 0.464931 64.9174 0.53135 64.9174 0.717322C64.9174 0.850159 64.784 0.903294 64.664 0.903294C64.4373 0.903294 64.2506 0.903294 63.8638 0.996281C62.997 1.15569 62.7437 1.70032 62.677 2.81615C62.6103 3.839 62.6103 4.72901 62.6103 9.69713V13.1111C62.6103 16.5515 62.2236 20.3773 59.6632 22.6488C57.3561 24.6945 54.9557 25.0133 53.0754 25.0133C51.9819 25.0133 48.7547 24.8804 46.4877 22.755C44.9541 21.2274 43.7272 18.9957 43.7272 14.3464ZM74.8523 13.204V16.7109C74.8523 20.1249 74.9457 22.0377 75.2657 22.4761C75.7458 23.1137 76.9327 23.7513 80.7066 23.7513C86.921 23.7513 90.8816 19.6998 90.8816 13.1642C90.8816 5.84485 86.6943 1.42136 78.3329 1.42136L72.5453 1.20882C72.0119 1.19554 70.905 1.18225 70.905 1.18225C70.7316 0.956429 70.6783 0.438363 71.025 0.438363H79.5198C87.1077 0.438363 93.7621 3.46706 93.7621 12.1679C93.7621 18.9293 89.188 24.6546 80.6133 24.6546C77.8661 24.6546 71.3317 24.5351 70.3716 24.5351C70.0249 24.5351 69.8648 24.4687 69.8648 24.2827C69.8648 24.1897 69.9315 24.0967 70.1182 24.0967C70.4116 24.0967 70.785 24.0701 71.0784 23.9639C71.5851 23.8045 71.7451 23.5122 71.9452 22.5956C72.1052 21.7721 72.1719 19.0489 72.1719 15.1567V13.204H74.8523ZM7.0945 24.907C6.58775 24.9601 6.04099 25 5.4809 25C3.74728 25 2.05367 24.7742 0.546757 24.1366C0.0400066 23.9107 0 23.7779 0 22.9277C0 21.3337 0.146691 20.0584 0.186697 19.5537C0.226704 19.2083 0.293382 19.0489 0.480079 19.0489C0.706783 19.0489 0.733454 19.1419 0.733454 19.3943C0.733454 19.6865 0.733454 20.1249 0.840138 20.5765C1.38689 22.941 3.8273 23.831 6.28103 23.831C6.56108 23.831 6.82779 23.8177 7.0945 23.7912V24.907ZM13.2955 4.07811C13.2955 4.58289 13.2155 4.80871 13.0421 4.80871C12.8154 4.80871 12.7888 4.64931 12.7488 4.39692C12.7088 4.01169 12.4821 3.16153 12.2687 2.80287C12.042 2.45749 10.9218 1.11583 7.53457 1.11583C5.00082 1.11583 3.01383 2.48406 3.01383 4.80871C3.01383 6.62859 4.00066 7.74442 7.5079 10.1621L9.68159 11.6631C11.0818 12.6328 12.4154 13.6424 13.1355 14.7582H8.7081C8.33471 14.466 7.9213 14.1605 7.45456 13.8284L5.80095 12.6594C1.89364 9.8831 0.613434 7.90383 0.613434 5.73858C0.613434 2.32465 3.56059 0 8.22802 0C9.66826 0 10.8685 0.132837 11.7886 0.31881C12.4821 0.451647 12.7754 0.478215 13.0822 0.478215C13.3755 0.478215 13.4555 0.544633 13.4555 0.704038C13.4422 0.863443 13.2955 1.91286 13.2955 4.07811ZM29.0848 1.81987V15.3029C29.0848 18.3581 29.0848 20.882 29.2448 22.2237C29.3382 23.1536 29.5382 23.8443 30.4984 23.9771C30.9518 24.0436 31.6452 24.11 31.9386 24.11C32.1253 24.11 32.192 24.203 32.192 24.296C32.192 24.4554 32.0319 24.5484 31.6852 24.5484H24.6174C24.2707 24.5484 24.1106 24.4819 24.1106 24.296C24.1106 24.203 24.1773 24.11 24.364 24.11C24.6574 24.11 25.0308 24.0436 25.3242 23.9771C25.9643 23.8443 26.1243 23.1536 26.2577 22.2237C26.4177 20.882 26.4177 18.3714 26.4177 15.3029V1.81987H26.111L21.6836 1.88629C19.6966 1.91286 18.9365 2.13868 18.4164 2.90914C18.0696 3.45377 17.963 3.6796 17.8696 3.89214C17.7763 4.14453 17.6829 4.21095 17.5496 4.21095C17.4562 4.21095 17.3895 4.11796 17.3895 3.9187C17.3895 3.59989 18.0296 1.12912 18.0963 0.863443C18.1497 0.677471 18.2697 0.265675 18.403 0.265675C18.6297 0.265675 18.9498 0.31881 19.8166 0.385228C20.7501 0.478215 21.9636 0.544633 22.3503 0.544633H34.3523C36.406 0.544633 37.2595 0.491498 37.5262 0.491498C37.6862 0.491498 37.6862 0.677471 37.6862 0.876727C37.6862 1.83316 37.7262 3.77258 37.7262 4.11796C37.7262 4.4102 37.6329 4.52976 37.4995 4.52976C37.3395 4.52976 37.2461 4.43677 37.2061 3.98512L37.1528 3.63974C37.0194 2.68332 36.206 1.95271 33.1388 1.88629L29.4048 1.81987H29.0848ZM103.937 9.69713V15.3029C103.937 18.3581 103.937 20.882 104.097 22.2237C104.19 23.1536 104.391 23.8443 105.351 23.9771C105.804 24.0436 106.498 24.11 106.791 24.11C106.978 24.11 107.044 24.203 107.044 24.296C107.044 24.4554 106.884 24.5484 106.538 24.5484H99.4697C99.123 24.5484 98.963 24.4819 98.963 24.296C98.963 24.203 99.0296 24.11 99.2163 24.11C99.5097 24.11 99.8831 24.0834 100.176 23.9771C100.683 23.8177 100.843 23.5255 101.043 22.6089C101.203 21.7853 101.27 19.195 101.27 15.3029V9.69713C101.27 4.34378 101.243 3.00213 101.177 2.45749C101.083 1.68704 100.883 1.20882 99.8298 0.996281C99.5764 0.929862 99.0296 0.903294 98.7363 0.903294C98.6029 0.903294 98.4829 0.836876 98.4829 0.717322C98.4829 0.53135 98.6429 0.464931 98.9896 0.464931C100.043 0.464931 102.444 0.557917 102.604 0.557917C102.764 0.557917 104.777 0.464931 105.737 0.464931C106.084 0.464931 106.244 0.53135 106.244 0.717322C106.244 0.850159 106.111 0.903294 105.991 0.903294C105.764 0.903294 105.577 0.929862 105.191 0.996281C104.324 1.15569 104.07 1.70032 104.004 2.81615C103.937 3.82572 103.937 4.71573 103.937 9.69713ZM114.339 12.407H111.285C111.298 7.25292 115.086 0 123.887 0C131.088 0 136.462 4.52976 136.462 11.9554C136.462 18.9426 131.635 24.7343 124.207 24.9867V23.7779H124.554C127.434 23.7779 133.382 22.1174 133.382 12.8454C133.382 5.19394 128.715 1.07598 123.647 1.07598C118.299 1.07598 114.299 4.58289 114.299 11.5701L114.339 12.407ZM167.161 12.407H164.107C164.134 7.23964 167.908 0 176.722 0C183.924 0 189.298 4.52976 189.298 11.9554C189.298 18.9426 184.457 24.7343 177.029 24.9867V23.7779H177.389C180.27 23.7779 186.217 22.1174 186.217 12.8454C186.217 5.19394 181.55 1.07598 176.482 1.07598C171.135 1.07598 167.134 4.58289 167.134 11.5701L167.161 12.407ZM223.077 21.0414C222.783 21.8385 222.623 22.6089 222.623 23.1801C222.623 23.8177 223.29 24.11 223.837 24.11H224.157C224.384 24.11 224.477 24.1764 224.477 24.296C224.477 24.4819 224.29 24.5484 223.997 24.5484H217.889H217.422H215.155C213.368 24.5484 212.568 24.3889 211.728 23.9373C210.355 23.2067 209.234 21.6392 207.407 19.2481C206.061 17.4947 204.527 15.263 203.887 14.4261C203.754 14.2933 203.66 14.2402 203.473 14.2402L198.899 14.28C198.739 14.28 198.673 14.373 198.673 14.5324V15.3029C198.673 18.3581 198.673 20.882 198.833 22.2237C198.926 23.1536 199.126 23.8443 200.086 23.9771C200.54 24.0436 201.233 24.11 201.527 24.11C201.713 24.11 201.78 24.203 201.78 24.296C201.78 24.4554 201.62 24.5484 201.273 24.5484H194.325C193.979 24.5484 193.819 24.4819 193.819 24.296C193.819 24.203 193.885 24.11 194.072 24.11C194.365 24.11 194.739 24.0436 195.032 23.9771C195.672 23.8443 195.832 23.1536 195.966 22.2237C196.126 20.882 196.126 18.3714 196.126 15.3029V13.3369H200.02C200.3 13.3502 202.66 13.2306 202.94 13.2306C203.714 13.2306 205.54 12.8985 206.287 12.3937C207.407 11.6233 208.728 10.9724 208.728 7.85069C208.728 2.63018 205.207 1.48778 201.793 1.4745L200.54 1.43464L196.699 1.39479L194.912 1.38151C194.805 1.00956 194.792 0.491498 195.152 0.491498C196.592 0.491498 200.926 0.451647 201.927 0.451647C203.94 0.451647 207.327 0.637619 209.021 1.85972C209.821 2.43092 211.501 3.9187 211.755 6.09724C212.088 8.93996 211.061 12.1413 206.221 13.6955C208.848 17.043 210.915 19.7529 212.768 21.7189C214.502 23.5388 215.876 23.8842 216.676 24.017C217.116 24.0834 217.476 24.11 217.702 24.11C217.943 24.0967 218.303 24.0701 218.516 24.0436C219.983 23.8576 220.623 22.6355 221.21 21.0414L229.144 1.24867C229.504 0.185972 229.624 0 229.824 0C230.011 0 230.145 0.159405 230.531 1.1424C231.011 2.35122 236.706 15.5154 238.653 20.364C239.799 23.2067 240.733 23.7115 241.4 23.8974C241.88 24.0569 242.36 24.0834 242.68 24.0834C242.867 24.0834 243 24.11 243 24.2694C243 24.4554 242.707 24.5218 242.36 24.5218C241.88 24.5218 239.546 24.5218 237.332 24.4554C236.639 24.4421 236.346 24.4687 236.346 24.2827C236.346 24.1498 236.372 24.0967 236.599 24.017C236.666 23.9904 236.852 23.8576 236.852 23.5654C236.852 23.4724 236.852 23.2731 236.786 23.1536L229.531 5.14081C229.438 4.88842 229.371 4.79543 229.278 4.79543C229.211 4.79543 229.118 4.92827 229.051 5.14081L223.077 21.0414Z" fill="#131217"/>
</svg>
