<svg width="26" height="24" viewBox="0 0 26 24" fill="none" xmlns="http://www.w3.org/2000/svg">
<path d="M22.3333 22.2857V4.3809C22.3333 3.67366 22.0524 2.99538 21.5523 2.49528C21.0522 1.99518 20.3739 1.71423 19.6667 1.71423H6.33333C5.62609 1.71423 4.94781 1.99518 4.44772 2.49528C3.94762 2.99538 3.66667 3.67366 3.66667 4.3809V22.2857M22.3333 22.2857H3.66667M22.3333 22.2857H25M22.3333 22.2857H15.6667M3.66667 22.2857H1M3.66667 22.2857H10.3333M15.6667 22.2857V19.0476C15.6667 18.6939 15.5262 18.3548 15.2761 18.1048C15.0261 17.8547 14.687 17.7142 14.3333 17.7142H11.6667C11.313 17.7142 10.9739 17.8547 10.7239 18.1048C10.4738 18.3548 10.3333 18.6939 10.3333 19.0476V22.2857M15.6667 22.2857H10.3333M9 7.04757H10.3333M9 12.3809H10.3333M15.6667 7.04757H17M15.6667 12.3809H17" stroke="#FFA438" stroke-width="1.5" stroke-linecap="round" stroke-linejoin="round"/>
</svg>
