<svg width="30" height="30" fill="none" xmlns="http://www.w3.org/2000/svg"><path d="M15.47 15.124c-2.472 0-4.526-1.994-4.526-4.354 0-2.44 2.054-4.436 4.527-4.436 2.556 0 4.526 1.995 4.526 4.437a4.31 4.31 0 0 1-1.328 3.084 4.568 4.568 0 0 1-3.184 1.27h-.015zm0-6.225c-1.046 0-1.843.854-1.843 1.872 0 1.017.797 1.79 1.844 1.79 1.09 0 1.843-.773 1.843-1.79.001-1.019-.754-1.872-1.844-1.872zm1.802 9.848 2.558 2.4c.503.529.503 1.302 0 1.791-.544.528-1.383.528-1.802 0l-2.557-2.442-2.473 2.442c-.25.244-.587.366-.965.366-.293 0-.628-.123-.922-.366-.503-.489-.503-1.262 0-1.79l2.599-2.402a11.988 11.988 0 0 1-2.68-1.138c-.63-.326-.755-1.14-.42-1.75.42-.61 1.174-.773 1.845-.366a5.92 5.92 0 0 0 3.017.824 5.92 5.92 0 0 0 3.017-.824c.671-.407 1.467-.245 1.844.366.378.61.21 1.423-.378 1.75-.795.488-1.717.855-2.682 1.14v-.001z" fill="#2F93E1" opacity=".6"/></svg>