<svg width="30" height="30" viewBox="0 0 30 30" fill="none" xmlns="http://www.w3.org/2000/svg">
<g opacity="0.6">
<path d="M15.47 15.1241C12.9983 15.1241 10.944 13.1301 10.944 10.7705C10.944 8.32938 12.9983 6.33447 15.4709 6.33447C18.0275 6.33447 19.997 8.32853 19.997 10.7705C19.9926 11.9291 19.5148 13.0385 18.6688 13.8551C17.8227 14.6716 16.6775 15.1284 15.4849 15.125L15.47 15.1241ZM15.47 8.89886C14.4236 8.89886 13.6274 9.75309 13.6274 10.7714C13.6274 11.7879 14.4236 12.5614 15.4709 12.5614C16.5602 12.5614 17.3144 11.7879 17.3144 10.7714C17.3153 9.75224 16.5602 8.89886 15.47 8.89886ZM17.2724 18.7467L19.8299 21.1479C20.333 21.6758 20.333 22.4492 19.8299 22.938C19.2856 23.4658 18.4466 23.4658 18.0275 22.938L15.4709 20.496L12.9983 22.938C12.7472 23.1819 12.4112 23.3035 12.0333 23.3035C11.7401 23.3035 11.405 23.1811 11.1111 22.938C10.608 22.4492 10.608 21.6758 11.1111 21.1471L13.7096 18.7459C12.7712 18.4759 11.871 18.0936 11.0297 17.6078C10.4006 17.2822 10.2755 16.4688 10.6106 15.8576C11.0297 15.2474 11.7839 15.085 12.455 15.4922C13.3637 16.0309 14.4077 16.3159 15.4722 16.3159C16.5368 16.3159 17.5807 16.0309 18.4894 15.4922C19.1605 15.085 19.9559 15.2474 20.333 15.8576C20.7109 16.4688 20.5421 17.2814 19.955 17.6078C19.1597 18.0965 18.2375 18.4628 17.2733 18.7476L17.2724 18.7467Z" fill="#2F93E1"/>
</g>
</svg>
