<svg width="16" height="16" viewBox="0 0 16 16" fill="none" xmlns="http://www.w3.org/2000/svg">
<path d="M8.3848 13.859C8.66094 13.859 8.8848 13.6352 8.8848 13.359V12.5894C8.8848 12.3133 9.10865 12.0894 9.3848 12.0894H11.0392C11.3153 12.0894 11.5392 11.8656 11.5392 11.5894V10.8199C11.5392 10.5437 11.3153 10.3199 11.0392 10.3199H9.38479C9.10865 10.3199 8.8848 10.096 8.8848 9.81985V9.7126C8.8848 9.48421 9.04108 9.28842 9.25523 9.20905C9.86425 8.98333 10.3767 8.60475 10.7926 8.0733C11.2903 7.43735 11.5392 6.71154 11.5392 5.89587C11.5392 4.91891 11.1936 4.08481 10.5023 3.39356C9.81107 2.70231 8.97696 2.35669 8 2.35669C7.02304 2.35669 6.18893 2.70231 5.49769 3.39356C4.80644 4.08481 4.46082 4.91891 4.46082 5.89587C4.46082 6.71154 4.70966 7.43735 5.20736 8.0733C5.62328 8.60475 6.13575 8.98333 6.74476 9.20905C6.95892 9.28842 7.1152 9.48421 7.1152 9.7126V9.81985C7.1152 10.096 6.89135 10.3199 6.6152 10.3199H4.96082C4.68467 10.3199 4.46082 10.5437 4.46082 10.8199V11.5894C4.46082 11.8656 4.68467 12.0894 4.96082 12.0894H6.6152C6.89135 12.0894 7.1152 12.3133 7.1152 12.5894V13.359C7.1152 13.6352 7.33906 13.859 7.6152 13.859H8.3848ZM8 4.12628C8.48848 4.12628 8.90553 4.29909 9.25116 4.64472C9.59678 4.99034 9.76959 5.40739 9.76959 5.89587C9.76959 6.38435 9.59678 6.80141 9.25116 7.14703C8.90553 7.49265 8.48848 7.66546 8 7.66546C7.51152 7.66546 7.09447 7.49265 6.74884 7.14703C6.40322 6.80141 6.23041 6.38435 6.23041 5.89587C6.23041 5.40739 6.40322 4.99034 6.74884 4.64472C7.09447 4.29909 7.51152 4.12628 8 4.12628Z" fill="#1E1D2E"/>
</svg>
