<svg width="30" height="30" viewBox="0 0 30 30" fill="none" xmlns="http://www.w3.org/2000/svg">
<g opacity="0.6">
<path d="M14.7914 6.34882C15.6984 6.33447 16.6001 6.34297 17.5009 6.33447C17.5554 7.41877 17.9369 8.52326 18.7134 9.28987C19.4884 10.0756 20.5845 10.4353 21.6511 10.5569V13.4092C20.6516 13.3758 19.6474 13.1633 18.7405 12.7234C18.3455 12.5406 17.9775 12.3053 17.6173 12.0646C17.6126 14.1344 17.6256 16.2015 17.6043 18.2628C17.5502 19.2531 17.2306 20.2386 16.6672 21.0546C15.7607 22.413 14.1875 23.2986 12.5716 23.3263C11.5804 23.3842 10.5903 23.1079 9.74567 22.599C8.34599 21.7553 7.36106 20.211 7.21761 18.5534C7.19954 18.2024 7.19676 17.8507 7.20929 17.4994C7.33403 16.1516 7.98632 14.8622 8.99879 13.9851C10.1464 12.9635 11.754 12.4769 13.2592 12.7648C13.2732 13.8141 13.2322 14.8622 13.2322 15.9115C12.5445 15.6841 11.741 15.7479 11.1402 16.1745C10.7006 16.4705 10.3684 16.9059 10.1947 17.4139C10.0513 17.773 10.0923 18.172 10.1007 18.5534C10.2654 19.7158 11.359 20.6928 12.5263 20.5871C13.3002 20.5786 14.0419 20.1196 14.4453 19.4475C14.5757 19.2122 14.7218 18.9715 14.7296 18.6947C14.7976 17.4277 14.7706 16.166 14.7789 14.8989C14.7847 12.0434 14.7706 9.19583 14.7919 6.34935L14.7914 6.34882Z" fill="#2F93E1"/>
</g>
</svg>
