<svg width="16" height="16" viewBox="0 0 16 16" fill="none" xmlns="http://www.w3.org/2000/svg">
<path d="M8 2.75C9.03835 2.75 10.0534 3.05791 10.9167 3.63478C11.7801 4.21166 12.453 5.0316 12.8504 5.99091C13.2477 6.95022 13.3517 8.00582 13.1491 9.02422C12.9465 10.0426 12.4465 10.9781 11.7123 11.7123C10.9781 12.4465 10.0426 12.9465 9.02422 13.1491C8.00582 13.3517 6.95022 13.2477 5.99091 12.8504C5.0316 12.453 4.21166 11.7801 3.63478 10.9167C3.05791 10.0534 2.75 9.03835 2.75 8C2.75 6.60761 3.30312 5.27225 4.28769 4.28769C5.27225 3.30312 6.60761 2.75 8 2.75Z" stroke="#8999A5" stroke-width="1.5"/>
<path d="M7.94316 7.86454V7.57586V5.04134C7.94316 5.03073 7.93895 5.02056 7.93144 5.01306C7.92394 5.00556 7.91377 5.00134 7.90316 5.00134C7.89255 5.00134 7.88238 5.00556 7.87487 5.01306C7.86737 5.02056 7.86316 5.03073 7.86316 5.04134V7.92075C7.86321 7.92992 7.86652 7.93878 7.8725 7.94574C7.87851 7.95274 7.88683 7.95736 7.89595 7.95876L8.0361 7.98034L8.14405 8.07227C8.14508 8.07314 8.14616 8.07396 8.14727 8.07472L10.6351 9.51105C10.6443 9.51635 10.6552 9.51779 10.6655 9.51504C10.6757 9.5123 10.6844 9.5056 10.6897 9.49642L7.94316 7.86454ZM7.94316 7.86454L8.19316 8.00888M7.94316 7.86454L8.19316 8.00888M8.19316 8.00888L10.6751 9.44179C10.6751 9.44179 10.6751 9.44179 10.6751 9.4418C10.6843 9.4471 10.691 9.45583 10.6937 9.46607C10.6965 9.47632 10.695 9.48722 10.6898 9.49641L8.19316 8.00888Z" stroke="#8999A5"/>
</svg>
