<svg width="30" height="30" viewBox="0 0 30 30" fill="none" xmlns="http://www.w3.org/2000/svg">
<g opacity="0.6">
<path d="M24.4548 9.15316C23.7672 9.47688 23.0284 9.6956 22.2518 9.79447C23.0531 9.28509 23.6526 8.4834 23.9385 7.53897C23.1856 8.01403 22.3617 8.34842 21.5024 8.52761C20.9246 7.87219 20.1593 7.43777 19.3252 7.29179C18.4912 7.14581 17.6352 7.29644 16.89 7.72029C16.1448 8.14415 15.5522 8.81752 15.2041 9.63585C14.8561 10.4542 14.7721 11.3717 14.9652 12.2459C13.4397 12.1646 11.9474 11.7434 10.5851 11.0096C9.22278 10.2759 8.02092 9.24605 7.05751 7.98692C6.72809 8.5906 6.53868 9.29052 6.53868 10.0359C6.53831 10.707 6.69386 11.3678 6.99153 11.9596C7.28919 12.5515 7.71977 13.0561 8.24506 13.4288C7.63586 13.4082 7.04011 13.2333 6.50739 12.9187V12.9712C6.50732 13.9124 6.81377 14.8246 7.37473 15.5531C7.93568 16.2815 8.71659 16.7814 9.58496 16.9678C9.01983 17.1303 8.42734 17.1542 7.85223 17.0378C8.09723 17.8476 8.57447 18.5558 9.21714 19.0631C9.85981 19.5705 10.6357 19.8516 11.4363 19.8672C10.0773 21.0006 8.39897 21.6154 6.67127 21.6127C6.36523 21.6127 6.05944 21.5938 5.75549 21.5558C7.5092 22.7537 9.55065 23.3894 11.6356 23.387C18.6933 23.387 22.5516 17.1769 22.5516 11.791C22.5516 11.616 22.5475 11.4393 22.5401 11.2643C23.2906 10.6877 23.9384 9.97373 24.4532 9.15579L24.4548 9.15316Z" fill="#2F93E1"/>
</g>
</svg>
