<svg width="30" height="30" fill="none" xmlns="http://www.w3.org/2000/svg"><path d="M24.455 9.153a7.333 7.333 0 0 1-2.203.641 4.053 4.053 0 0 0 1.687-2.255 7.393 7.393 0 0 1-2.437.989 3.775 3.775 0 0 0-2.177-1.236 3.642 3.642 0 0 0-2.435.428 3.99 3.99 0 0 0-1.686 1.916 4.312 4.312 0 0 0-.239 2.61 10.396 10.396 0 0 1-4.38-1.236 11.046 11.046 0 0 1-3.527-3.023 4.27 4.27 0 0 0-.52 2.049c0 .671.156 1.332.454 1.924a4 4 0 0 0 1.253 1.469 3.657 3.657 0 0 1-1.738-.51v.052c0 .941.307 1.854.868 2.582a3.806 3.806 0 0 0 2.21 1.415 3.644 3.644 0 0 1-1.733.07 4.08 4.08 0 0 0 1.365 2.025 3.694 3.694 0 0 0 2.22.804 7.415 7.415 0 0 1-5.682 1.689 10.392 10.392 0 0 0 5.88 1.831c7.058 0 10.917-6.21 10.917-11.596 0-.175-.005-.352-.012-.527a8.087 8.087 0 0 0 1.913-2.108l.002-.003z" fill="#2F93E1" opacity=".6"/></svg>