<svg width="16" height="16" fill="none" xmlns="http://www.w3.org/2000/svg"><path d="M11.858 9.916V5.114M4.084 9.62V5.115m-2.376 9.253 3.721-3.401m-3.721 3.401c.235.198.84.168.96.16a.65.65 0 0 1 .041 0h10.784a.36.36 0 0 0 .04-.003c.1-.011.545-.076.702-.338m-12.527.181c-.141-.115-.113-.879-.108-.985a.56.56 0 0 0 0-.025V7.673m12.635 6.514c-1.461-1.275-3.753-3.22-3.753-3.22m3.753 3.22c.194-.332.172-.948.166-1.058a.636.636 0 0 1 0-.034v-4.93s0-.285-.11-.492m0 0-3.809 3.294m3.808-3.294a3.372 3.372 0 0 0-.406-.57l-2.026-1.989M1.601 7.674l3.828 3.293M1.601 7.673c0-.216.458-.644.5-.682a.67.67 0 0 0 .006-.006l1.977-1.87m0 0V3.883a.5.5 0 0 1 .5-.5h1.224m0 0 1.797-1.536a.5.5 0 0 1 .646-.004l1.843 1.54m-4.286 0h4.286m1.764 1.731v-1.23a.5.5 0 0 0-.5-.5h-1.264M5.43 10.966l2.16-2.01a.5.5 0 0 1 .678-.003l2.215 2.013" stroke="#FFA438"/></svg>