<svg width="24" height="24" fill="none" xmlns="http://www.w3.org/2000/svg"><path d="M17.787 14.874V7.672M6.126 14.43V7.673M2.56 21.553l5.583-5.103m-5.583 5.102c.361.303 1.3.25 1.45.24a.575.575 0 0 1 .042-.001H20.25c.013 0 .027 0 .04-.002.128-.014.822-.106 1.062-.508m-18.79.271c-.214-.176-.167-1.352-.161-1.484V11.51m18.95 9.77c-2.19-1.912-5.628-4.83-5.628-4.83m5.629 4.83c.297-.507.257-1.458.25-1.595l-.002-.033v-7.404s0-.427-.165-.738m0 0-5.712 4.94m5.712-4.94a5.066 5.066 0 0 0-.603-.85l-3.045-2.988M2.401 11.51l5.743 4.94m-5.743-4.94c0-.327.7-.977.751-1.025l.006-.005 2.968-2.807m0 0V5.575a.5.5 0 0 1 .5-.5h2.086m0 0 2.857-2.442a.5.5 0 0 1 .645-.004l2.928 2.446m-6.43 0h6.43m2.645 2.597V5.575a.5.5 0 0 0-.5-.5h-2.145M8.144 16.45l3.41-3.17a.5.5 0 0 1 .676-.004l3.493 3.174" stroke="#FFA438" stroke-width="1.5"/></svg>