<svg width="30" height="30" viewBox="0 0 30 30" fill="none" xmlns="http://www.w3.org/2000/svg">
<g opacity="0.6">
<path d="M23.5748 10.4592C23.4689 10.0989 23.2627 9.77269 22.978 9.51526C22.6853 9.24992 22.3266 9.06012 21.9357 8.96376C20.4727 8.59585 14.6112 8.59585 14.6112 8.59585C12.1676 8.56932 9.72466 8.68599 7.29608 8.94518C6.90516 9.04865 6.54709 9.2427 6.25374 9.51006C5.96549 9.77466 5.75671 10.101 5.64765 10.4585C5.38565 11.8051 5.25836 13.1724 5.26748 14.5419C5.25813 15.9103 5.38511 17.2771 5.64765 18.6254C5.75438 18.9814 5.96238 19.3063 6.2514 19.5686C6.54042 19.831 6.90033 20.0205 7.29608 20.1209C8.77858 20.488 14.6112 20.488 14.6112 20.488C17.0579 20.5146 19.504 20.3979 21.9357 20.1387C22.3266 20.0423 22.6853 19.8525 22.978 19.5872C23.2663 19.3248 23.4712 18.9985 23.574 18.6433C23.8428 17.2972 23.9735 15.9293 23.9643 14.559C23.9845 13.183 23.854 11.8086 23.5748 10.4585V10.4592ZM12.7478 17.0869V11.9978L17.6245 14.5427L12.7478 17.0869Z" fill="#2F93E1"/>
</g>
</svg>
